<svg width="125" height="42" viewBox="0 0 125 42" fill="none" xmlns="http://www.w3.org/2000/svg">
<g clip-path="url(#clip0_1_207)">
<g clip-path="url(#clip1_1_207)">
<path fill-rule="evenodd" clip-rule="evenodd" d="M17.1815 36.0846C23.8378 36.0846 29.7415 31.6894 31.6257 25.284C26.3861 26.1573 20.7365 23.9869 17.1815 20.134C13.6254 23.9869 7.97694 26.1573 2.7373 25.284C4.74754 31.8143 10.5252 36.0846 17.1815 36.0846Z" fill="#74787D"/>
<path opacity="0.5" fill-rule="evenodd" clip-rule="evenodd" d="M32.2542 22.1443C32.2542 15.1036 28.5091 8.64591 21.4525 6.57056C22.1005 10.4597 20.9828 14.7001 18.9405 18C22.3172 21.5379 27.4586 23.3442 32.2542 22.1443ZM15.299 17.874C13.2055 14.6542 12.1476 10.4074 12.787 6.57056C5.78697 8.67047 2.11133 15.1634 2.11133 22.1443C6.8855 23.3389 12.0803 21.5763 15.299 17.874Z" fill="#74787D"/>
<path fill-rule="evenodd" clip-rule="evenodd" d="M17.1811 15.2371C18.1868 13.3539 18.6886 11.2188 18.6886 8.95769C18.6886 7.9531 18.5636 6.94852 18.3117 5.94287H16.0517C15.8028 6.92854 15.6762 7.94109 15.6748 8.95769C15.6748 11.2188 16.3025 13.3539 17.1811 15.2371Z" fill="#74787D"/>
<mask id="mask0_1_207" style="mask-type:luminance" maskUnits="userSpaceOnUse" x="42" y="4" width="84" height="34">
<path d="M42.489 4.98206H125.119V37.0091H42.489V4.98206Z" fill="white"/>
</mask>
<g mask="url(#mask0_1_207)">
<path d="M122.415 28.6147C122.14 28.6158 121.867 28.5625 121.613 28.4577C121.359 28.353 121.128 28.1989 120.933 28.0044C120.739 27.8098 120.584 27.5787 120.48 27.3243C120.375 27.07 120.322 26.7974 120.323 26.5223C120.323 25.3597 121.253 24.4085 122.415 24.4085C123.578 24.4085 124.529 25.3597 124.529 26.5223C124.529 27.6859 123.578 28.6147 122.415 28.6147ZM106.319 20.1596C105.536 20.1596 104.796 20.3709 104.226 20.6037V28.2976H100.843V17.0946H104.013V18.4269C104.88 17.623 106.213 16.8832 107.861 16.8832C109.488 16.8832 110.461 17.56 110.968 18.6596C111.792 17.7714 113.251 16.8832 115.048 16.8832C117.669 16.8832 118.599 18.6596 118.599 21.1108V28.2976H115.217V22.0203C115.217 20.9207 114.794 20.1596 113.504 20.1596C112.723 20.1596 111.962 20.3709 111.39 20.6037C111.412 20.7734 111.412 20.9421 111.412 21.1108V28.2976H108.03V22.0203C108.03 20.9207 107.607 20.1596 106.317 20.1596H106.319ZM93.0399 25.2326C93.9068 25.2326 94.731 25.0426 95.3448 24.7885V17.0946H98.7269V28.2976H95.5562V26.9653C94.4368 27.9578 92.9933 28.5068 91.4973 28.509C88.728 28.509 87.7352 26.7336 87.7352 24.2814V17.0946H91.1172V23.3719C91.1172 24.4501 91.603 25.2326 93.0399 25.2326ZM80.4384 20.1596C79.5715 20.1596 78.7473 20.3507 78.1345 20.6037V28.2976H74.7514V17.0946H77.9221V18.4269C79.0412 17.4347 80.4843 16.8857 81.9799 16.8832C84.7492 16.8832 85.7431 18.6596 85.7431 21.1108V28.2976H82.361V22.0203C82.361 20.9421 81.8753 20.1596 80.4384 20.1596ZM72.6857 25.8668C72.6857 30.2855 69.9591 31.8494 66.8098 31.8494C65.0344 31.8494 63.512 31.3423 62.5822 30.7712V27.3678C63.6177 28.1503 64.9917 28.6788 66.4286 28.6788C68.6705 28.6788 69.3036 27.7062 69.3036 26.3952V26.2693C68.5851 26.7337 67.6553 27.0934 66.4286 27.0934C63.7864 27.0934 61.758 25.3181 61.758 22.4847C61.758 18.5742 64.9073 16.8832 67.951 16.8832C70.0648 16.8832 71.5658 17.433 72.6857 17.8771V25.8668ZM65.266 22.0203C65.266 23.563 66.3016 24.0487 67.4225 24.0487C68.078 24.0487 68.7538 23.88 69.3036 23.6687V20.0966C68.8557 19.9743 68.3939 19.9105 67.9296 19.9065C66.4927 19.9065 65.266 20.5407 65.266 22.0203ZM58.2596 16.058C56.8653 16.058 56.0198 15.4238 56.0198 14.3456C56.0198 13.2673 56.8653 12.6545 58.2596 12.6545C59.6763 12.6545 60.4801 13.2684 60.4801 14.3456C60.4801 15.4238 59.6763 16.058 58.2596 16.058ZM56.5483 17.0935H59.9303V28.2976H56.5483V17.0935ZM51.1613 24.3028C51.1613 23.5843 50.3158 23.3527 49.0689 23.0345L47.2722 22.5904C44.82 21.9776 42.6218 21.0905 42.6218 18.1312C42.6218 15.1505 45.2214 13.5011 48.3504 13.5011C51.1186 13.5011 52.8737 14.2837 53.8249 14.8335V18.6596C52.4082 17.7714 50.0831 16.9472 48.2234 16.9472C47.1238 16.9472 46.4683 17.2216 46.4683 17.8557C46.4683 18.5956 47.3351 18.8283 48.7732 19.2094L50.3372 19.6322C52.5353 20.2236 54.8604 21.0264 54.8604 24.0711C54.8604 26.945 52.3453 28.509 48.9845 28.509C46.3423 28.509 44.2072 27.6646 43.2346 26.9664V23.2673C44.6716 24.3241 47.2935 25.191 49.2162 25.191C50.6959 25.191 51.1613 24.8739 51.1613 24.3028Z" fill="#74787D"/>
</g>
</g>
</g>
<defs>
<clipPath id="clip0_1_207">
<rect width="124.973" height="41.9911" fill="white"/>
</clipPath>
<clipPath id="clip1_1_207">
<rect width="125.973" height="41.9911" fill="white"/>
</clipPath>
</defs>
</svg>
