<svg width="125" height="42" viewBox="0 0 125 42" fill="none" xmlns="http://www.w3.org/2000/svg">
<g clip-path="url(#clip0_1_255)">
<g clip-path="url(#clip1_1_255)">
<g clip-path="url(#clip2_1_255)">
<path opacity="0.4" d="M4.25056 20.6259V36.3571H0.000244141V24.023L4.25056 20.6259Z" fill="#74787D"/>
<path d="M4.25024 20.6259V36.3571H8.50056V23.259L4.25024 20.6269V20.6259Z" fill="#74787D"/>
<path opacity="0.5" d="M12.6259 14.2002V36.3582H6.95911V18.8899L12.6259 14.2002Z" fill="#74787D"/>
<path d="M12.6241 14.2002V36.3582H18.2909V17.71L12.6241 14.2002Z" fill="#74787D"/>
<path opacity="0.6" d="M23.0913 5.63306V36.3582H15.4581V12.6497L23.0913 5.63306Z" fill="#74787D"/>
<path d="M23.092 5.63293V36.3581H30.7252V12.6495L23.092 5.63293ZM116.643 28.8233H118.551V30.4353H122.976V27.584H117.863L116.506 26.227V17.5953H118.472V25.8542H122.976V17.5953H124.942V30.7897L123.545 32.1467H118.039L116.643 30.7897V28.8233ZM112.328 28.1545H110.362V19.2268H108.651V17.5953H110.362V15.0195L111.738 13.6624H115.003V15.294H112.328V17.5953H114.807V19.2268H112.328V28.1545ZM106.568 15.6872H104.524V13.8386H106.568V15.6872ZM106.529 28.1535H104.563V17.5953H106.529V28.1535ZM102.573 28.1555H99.0529L97.6764 26.779V19.2278H96.2221V17.5963H97.6764V15.4527H99.6428V17.5963H102.357V19.2278H99.6428V26.3069H102.573V28.1555ZM87.9201 28.1545H85.9537V17.5953H87.7235V18.6963L88.8245 17.5953H93.0328L94.4093 18.9523V28.1545H92.4224V19.4439H88.8634L87.9201 20.2888V28.1545ZM83.0451 15.6872H80.9998V13.8386H83.0451V15.6872ZM83.0051 28.1535H81.0387V17.5953H83.0051V28.1535ZM75.8216 28.1545H73.8552V17.5953H75.6249V18.9318L76.982 17.5953H79.4195V19.4828H76.943L75.8216 20.5449V28.1545ZM64.6458 32.1467H62.6794V17.5953H64.4492V18.6963L65.5501 17.5953H69.5813L70.9578 18.9523V26.778L69.5823 28.1545H64.6458V32.1467ZM68.9914 19.4429H65.5901L64.6458 20.2888V26.3458H68.9914V19.4429ZM47.4008 28.1545H45.4344V17.5953H47.2041V18.6963L48.3051 17.5953H52.2185L53.0645 18.4607L53.9104 17.5953H58.3932L59.7697 18.9523V28.1545H57.8033V19.4439H53.6349V28.1545H51.6685V19.4439H48.3451L47.4008 20.2888V28.1545ZM40.1988 28.1555V14.5289H42.2441V28.1545L40.1988 28.1555Z" fill="#74787D"/>
</g>
</g>
</g>
<defs>
<clipPath id="clip0_1_255">
<rect width="124.973" height="41.9911" fill="white"/>
</clipPath>
<clipPath id="clip1_1_255">
<rect width="125.973" height="41.9911" fill="white"/>
</clipPath>
<clipPath id="clip2_1_255">
<rect width="125.973" height="30.7252" fill="white" transform="translate(0.00012207 5.63293)"/>
</clipPath>
</defs>
</svg>
